<?xml version="1.0" encoding="utf-8" ?><svg xmlns="http://www.w3.org/2000/svg" xmlns:xlink="http://www.w3.org/1999/xlink" width="1024" height="1024" viewBox="0 0 1024 1024"><path fill="#F53238" d="M489.859 116.894C706.659 104.507 892.454 270.21 904.854 487.009C917.254 703.808 751.562 889.614 534.764 902.026C317.947 914.44 132.122 748.732 119.721 531.914C107.321 315.096 273.041 129.281 489.859 116.894Z"/><path fill="#FEFEFE" d="M501.293 193.214C548.906 190.85 600.087 205.016 631.16 243.077C641.787 256.094 648.927 268.175 653.966 284.312C660.084 304.283 660.919 325.5 656.389 345.89C647.046 389.704 622.089 410.349 589.663 437.223C573.348 451.837 554.833 468.621 550.577 491.126C549.417 497.26 548.446 510.478 540.059 511.528C529.728 512.822 518.364 511.759 507.836 511.985C496.621 512.225 485.217 512.081 473.999 512.02C460.158 511.568 461.471 499.371 461.432 489.517C461.337 465.445 471.341 444.462 485.583 425.725C495.28 412.857 509.367 398.51 521.745 388.188C537.444 375.095 551.299 365.755 558.421 345.382C570.956 309.532 542.67 275.5 505.505 277.1C479.101 278.237 459.03 289.753 449.718 315.355C446.611 322.878 445.912 340.394 435.082 340.776C411.722 341.602 387.423 341.997 364.102 341.443C353.268 335.398 355.66 324.042 357.117 313.49C360.788 287.125 372.121 262.419 389.71 242.439C418.964 209.851 458.537 195.471 501.293 193.214Z"/><path fill="#FEFEFE" d="M354.336 682.207C389.859 678.41 424.233 703.545 427.405 739.868C429.235 760.81 425.908 776.651 412.516 793.111C415.661 796.006 423.076 802.5 424.499 806.05C424.018 810.837 410.428 822.756 405.987 823.195C402.482 821.646 395.388 813.168 392.077 809.693L386.136 812.358C364.033 821.695 334.959 817.9 316.194 802.824C302.642 791.931 294.05 776.038 292.359 758.733C288.395 718.658 313.867 685.983 354.336 682.207Z"/><path fill="#F53238" d="M358.137 710.183C363.754 709.793 369.379 710.817 374.499 713.161C393.266 721.706 399.455 744.617 393.526 763.227C392.764 765.62 391.547 768.095 390.475 770.374C386.413 766.539 379.094 758.102 374.736 755.781C369.226 757.024 360.197 764.774 360.461 770.985C360.61 774.468 363.133 776.347 365.466 778.59C367.831 781.197 370.243 783.761 372.701 786.282C317.142 804.119 305.503 716.123 358.137 710.183Z"/><path fill="#FEFEFE" d="M501.396 543.64C530.299 540.175 556.561 560.74 560.126 589.632C563.692 618.523 543.218 644.856 514.339 648.522C485.318 652.207 458.826 631.61 455.243 602.575C451.66 573.541 472.349 547.122 501.396 543.64Z"/><path fill="#FEFEFE" d="M527.587 686.061C533.086 685.42 539.289 685.857 544.907 685.566C551.397 685.229 555.341 687.195 555.203 694.339C554.968 706.441 554.959 718.692 555.016 730.809C554.498 755.006 558.956 783.179 540.267 802.15C520.387 822.773 480.989 822.538 460.747 802.562C444.484 786.513 446.098 763.833 446.097 742.75C446.06 727.979 446.025 713.195 446.042 698.425C446.045 695.699 446.405 689.513 448.731 687.739C451.337 686.166 455.165 686.163 458.032 686.226C461.254 686.298 464.152 686.332 467.272 686.453C469.86 686.553 472.511 686.22 474.587 687.894C475.714 688.801 476.299 690.673 476.385 692.038C476.776 698.268 476.575 704.619 476.556 710.872L476.434 749.499C476.395 767.261 475.738 789.209 501.14 789.173C528.031 789.134 524.635 759.354 524.585 740.59L524.47 703.574C524.455 698.01 523.428 690.126 527.587 686.061Z"/><path fill="#FEFEFE" d="M637.327 685.613C646.91 685.24 721.212 684.594 724.483 686.642C725.809 687.473 726.436 689.626 726.716 691.063C727.545 695.325 727.394 702.254 725.658 706.237C721.964 714.707 713.646 724.583 708.155 732.28C694.916 750.839 681.252 769.123 668.346 787.914C687.334 788.046 706.575 787.43 725.469 788.518C729.689 788.761 728.791 799.718 728.871 802.834C729.002 807.933 729.22 812.43 723.837 814.45C710.405 815.359 693.45 814.427 679.582 814.673C665.622 814.921 650.821 814.527 636.833 814.446C635.081 814.32 632.145 814.137 630.746 813.164C626.621 810.297 627.379 797.746 629.608 794.042C635.331 784.529 642.487 775.224 649.029 766.101C661.787 748.028 674.68 730.051 687.706 712.171C679.594 712.056 638.377 713.483 634.136 710.282C632.133 706.022 632.983 694.238 633.434 689.222C633.603 687.346 635.717 686.438 637.327 685.613Z"/><path fill="#FEFEFE" d="M591.642 685.744C596.038 685.63 604.645 684.752 607.876 687.341C609.62 688.739 609.868 692.565 609.876 694.743C609.941 714.395 609.827 734.169 609.857 753.809L609.906 787.931C609.913 794.419 609.972 800.805 609.744 807.292C609.471 815.075 605.325 814.414 599.017 814.461C596.216 814.435 592.937 814.569 590.127 814.655C581.268 814.927 579.007 813.001 578.998 804.016C578.975 782.626 579.057 761.242 579.025 739.854L578.981 710.81C578.968 705.34 578.924 699.894 579.101 694.427C579.413 684.777 583.771 685.754 591.642 685.744Z"/></svg>